<svg width="894" height="460" viewBox="0 0 894 460" fill="none" xmlns="http://www.w3.org/2000/svg">
<g opacity="0.522135" filter="url(#filter0_f_0_1428)">
<path fill-rule="evenodd" clip-rule="evenodd" d="M289.24 31.3323L319.337 24.9672H836.6L857.363 38.9253L865.355 64.0236L869.073 390.348C869.073 390.348 856.641 409.172 852.027 411.429C847.413 413.686 818.794 434.03 818.794 434.03H323.384C323.384 434.03 292.842 425.795 285.823 418.711C278.805 411.627 275.078 382.033 275.078 382.033V64.0236L289.24 31.3323Z" fill="url(#paint0_linear_0_1428)"/>
</g>
<path fill-rule="evenodd" clip-rule="evenodd" d="M275.078 47.9469C275.078 33.0352 287.166 20.9469 302.078 20.9469H843.078C857.989 20.9469 870.078 33.0352 870.078 47.9469V395.974C870.078 410.886 857.989 422.974 843.078 422.974H302.078C287.166 422.974 275.078 410.886 275.078 395.974V47.9469Z" fill="url(#paint1_linear_0_1428)"/>
<path d="M275.528 47.9469C275.528 33.2837 287.414 21.3969 302.078 21.3969H843.078C857.741 21.3969 869.628 33.2837 869.628 47.9469V395.974C869.628 410.637 857.741 422.524 843.078 422.524H302.078C287.414 422.524 275.528 410.637 275.528 395.974V47.9469Z" stroke="#F0F1F6" stroke-opacity="0.233894" stroke-width="0.9"/>
<path opacity="0.4482" d="M317.74 37.7178C317.74 36.4752 318.748 35.4678 319.99 35.4678H825.165C826.407 35.4678 827.415 36.4752 827.415 37.7178V405.198C827.415 406.441 826.407 407.448 825.165 407.448H319.99C318.748 407.448 317.74 406.441 317.74 405.198V37.7178Z" fill="#E6F0FD" stroke="#C7D8EC" stroke-width="0.9"/>
<path fill-rule="evenodd" clip-rule="evenodd" d="M387.645 91.0915C387.645 90.0974 388.451 89.2915 389.445 89.2915H409.967C410.961 89.2915 411.767 90.0974 411.767 91.0915V111.613C411.767 112.607 410.961 113.413 409.967 113.413H389.445C388.451 113.413 387.645 112.607 387.645 111.613V91.0915Z" fill="url(#paint2_linear_0_1428)"/>
<path fill-rule="evenodd" clip-rule="evenodd" d="M356.488 37.028H825.06C826.054 37.028 826.86 37.8338 826.86 38.828V78.2357H356.488V37.028Z" fill="white"/>
<path fill-rule="evenodd" clip-rule="evenodd" d="M389.655 54.1141C389.655 52.4488 391.005 51.0989 392.671 51.0989C394.336 51.0989 395.686 52.4488 395.686 54.1141C395.686 55.7793 394.336 57.1293 392.671 57.1293C391.005 57.1293 389.655 55.7793 389.655 54.1141Z" fill="#FF8E95"/>
<path fill-rule="evenodd" clip-rule="evenodd" d="M377.595 187.142H826.86V240.985H377.595V187.142Z" fill="white"/>
<path fill-rule="evenodd" clip-rule="evenodd" d="M386.58 193.426C386.58 192.929 386.983 192.526 387.48 192.526H457.562C458.059 192.526 458.462 192.929 458.462 193.426V196.113C458.462 196.61 458.059 197.013 457.562 197.013H387.48C386.983 197.013 386.58 196.61 386.58 196.113V193.426Z" fill="#C8D7E9"/>
<path opacity="0.615319" fill-rule="evenodd" clip-rule="evenodd" d="M386.58 202.4C386.58 201.903 386.983 201.5 387.48 201.5H475.533C476.03 201.5 476.433 201.903 476.433 202.4V203.292C476.433 203.789 476.03 204.192 475.533 204.192H387.48C386.983 204.192 386.58 203.789 386.58 203.292V202.4Z" fill="#C8D7E9"/>
<path opacity="0.316916" fill-rule="evenodd" clip-rule="evenodd" d="M767.557 197.019C767.557 196.024 768.363 195.219 769.357 195.219H811.582C812.576 195.219 813.382 196.024 813.382 197.019V211.366C813.382 212.36 812.576 213.166 811.582 213.166H769.357C768.363 213.166 767.557 212.36 767.557 211.366V197.019Z" fill="url(#paint3_linear_0_1428)"/>
<rect x="377.595" y="131.504" width="449.265" height="53.8429" fill="white"/>
<path fill-rule="evenodd" clip-rule="evenodd" d="M386.58 139.583C386.58 139.086 386.983 138.683 387.48 138.683H457.562C458.059 138.683 458.462 139.086 458.462 139.583V142.27C458.462 142.767 458.059 143.17 457.562 143.17H387.48C386.983 143.17 386.58 142.767 386.58 142.27V139.583Z" fill="#C8D7E9"/>
<path opacity="0.615319" fill-rule="evenodd" clip-rule="evenodd" d="M386.58 148.557C386.58 148.06 386.983 147.657 387.48 147.657H475.533C476.03 147.657 476.433 148.06 476.433 148.557V149.449C476.433 149.946 476.03 150.349 475.533 150.349H387.48C386.983 150.349 386.58 149.946 386.58 149.449V148.557Z" fill="#C8D7E9"/>
<path fill-rule="evenodd" clip-rule="evenodd" d="M767.557 141.381C767.557 140.387 768.363 139.581 769.357 139.581H811.582C812.576 139.581 813.382 140.387 813.382 141.381V155.728C813.382 156.723 812.576 157.528 811.582 157.528H769.357C768.363 157.528 767.557 156.723 767.557 155.728V141.381Z" fill="url(#paint4_linear_0_1428)"/>
<path fill-rule="evenodd" clip-rule="evenodd" d="M377.595 242.78H826.86V296.623H377.595V242.78Z" fill="white"/>
<path fill-rule="evenodd" clip-rule="evenodd" d="M386.58 250.859C386.58 250.362 386.983 249.959 387.48 249.959H457.562C458.059 249.959 458.462 250.362 458.462 250.859V253.546C458.462 254.043 458.059 254.446 457.562 254.446H387.48C386.983 254.446 386.58 254.043 386.58 253.546V250.859Z" fill="#C8D7E9"/>
<path opacity="0.615319" fill-rule="evenodd" clip-rule="evenodd" d="M386.58 259.833C386.58 259.336 386.983 258.933 387.48 258.933H475.533C476.03 258.933 476.433 259.336 476.433 259.833V260.725C476.433 261.222 476.03 261.625 475.533 261.625H387.48C386.983 261.625 386.58 261.222 386.58 260.725V259.833Z" fill="#C8D7E9"/>
<path opacity="0.316916" fill-rule="evenodd" clip-rule="evenodd" d="M767.557 252.656C767.557 251.662 768.363 250.856 769.357 250.856H811.582C812.576 250.856 813.382 251.662 813.382 252.656V267.004C813.382 267.998 812.576 268.804 811.582 268.804H769.357C768.363 268.804 767.557 267.998 767.557 267.004V252.656Z" fill="url(#paint5_linear_0_1428)"/>
<path fill-rule="evenodd" clip-rule="evenodd" d="M377.595 298.417H826.86V352.26H377.595V298.417Z" fill="white"/>
<path fill-rule="evenodd" clip-rule="evenodd" d="M386.58 306.496C386.58 305.999 386.983 305.596 387.48 305.596H457.562C458.059 305.596 458.462 305.999 458.462 306.496V309.183C458.462 309.68 458.059 310.083 457.562 310.083H387.48C386.983 310.083 386.58 309.68 386.58 309.183V306.496Z" fill="#C8D7E9"/>
<path opacity="0.615319" fill-rule="evenodd" clip-rule="evenodd" d="M386.58 315.47C386.58 314.973 386.983 314.57 387.48 314.57H475.533C476.03 314.57 476.433 314.973 476.433 315.47V316.362C476.433 316.86 476.03 317.262 475.533 317.262H387.48C386.983 317.262 386.58 316.86 386.58 316.362V315.47Z" fill="#C8D7E9"/>
<path opacity="0.316916" fill-rule="evenodd" clip-rule="evenodd" d="M767.557 308.294C767.557 307.3 768.363 306.494 769.357 306.494H811.582C812.576 306.494 813.382 307.3 813.382 308.294V322.642C813.382 323.636 812.576 324.442 811.582 324.442H769.357C768.363 324.442 767.557 323.636 767.557 322.642V308.294Z" fill="url(#paint6_linear_0_1428)"/>
<path fill-rule="evenodd" clip-rule="evenodd" d="M377.595 354.055H826.86V406.098C826.86 407.092 826.054 407.898 825.06 407.898H377.595V354.055Z" fill="white"/>
<path fill-rule="evenodd" clip-rule="evenodd" d="M386.58 362.134C386.58 361.637 386.983 361.234 387.48 361.234H457.562C458.059 361.234 458.462 361.637 458.462 362.134V364.821C458.462 365.318 458.059 365.721 457.562 365.721H387.48C386.983 365.721 386.58 365.318 386.58 364.821V362.134Z" fill="#C8D7E9"/>
<path opacity="0.615319" fill-rule="evenodd" clip-rule="evenodd" d="M386.58 371.108C386.58 370.611 386.983 370.208 387.48 370.208H475.533C476.03 370.208 476.433 370.611 476.433 371.108V372C476.433 372.497 476.03 372.9 475.533 372.9H387.48C386.983 372.9 386.58 372.497 386.58 372V371.108Z" fill="#C8D7E9"/>
<path opacity="0.316916" fill-rule="evenodd" clip-rule="evenodd" d="M767.557 363.931C767.557 362.937 768.363 362.131 769.357 362.131H811.582C812.576 362.131 813.382 362.937 813.382 363.931V378.279C813.382 379.273 812.576 380.079 811.582 380.079H769.357C768.363 380.079 767.557 379.273 767.557 378.279V363.931Z" fill="url(#paint7_linear_0_1428)"/>
<path fill-rule="evenodd" clip-rule="evenodd" d="M768.566 48.8786C768.566 47.8845 769.372 47.0786 770.366 47.0786H812.999C813.993 47.0786 814.799 47.8845 814.799 48.8786V63.3698C814.799 64.3639 813.993 65.1698 812.999 65.1698H770.366C769.372 65.1698 768.566 64.3639 768.566 63.3698V48.8786Z" fill="url(#paint8_linear_0_1428)"/>
<path opacity="0.957937" fill-rule="evenodd" clip-rule="evenodd" d="M317.29 38.8279C317.29 37.8338 318.096 37.028 319.09 37.028H376.589V407.898H319.09C318.096 407.898 317.29 407.092 317.29 406.098V38.8279Z" fill="#20324B"/>
<path fill-rule="evenodd" clip-rule="evenodd" d="M419.807 91.1965C419.807 90.6995 420.21 90.2965 420.707 90.2965H490.267C490.764 90.2965 491.167 90.6995 491.167 91.1965V94.4218C491.167 94.9189 490.764 95.3218 490.267 95.3218H420.707C420.21 95.3218 419.807 94.9189 419.807 94.4218V91.1965Z" fill="#C8D7E9"/>
<path opacity="0.615319" fill-rule="evenodd" clip-rule="evenodd" d="M419.807 101.247C419.807 100.75 420.21 100.347 420.707 100.347H509.363C509.861 100.347 510.263 100.75 510.263 101.247V102.462C510.263 102.96 509.861 103.362 509.363 103.362H420.707C420.21 103.362 419.807 102.96 419.807 102.462V101.247Z" fill="#C8D7E9"/>
<g opacity="0.522135" filter="url(#filter1_f_0_1428)">
<path fill-rule="evenodd" clip-rule="evenodd" d="M30.0607 32.3111L40.6505 25.9469H222.652L229.958 39.9029L232.77 64.9973L234.078 391.271C234.078 391.271 229.703 410.093 228.08 412.35C226.457 414.607 216.387 434.947 216.387 434.947H42.0746C42.0746 434.947 31.3282 426.714 28.8586 419.631C26.389 412.548 25.0776 382.958 25.0776 382.958V64.9973L30.0607 32.3111Z" fill="url(#paint9_linear_0_1428)"/>
</g>
<path fill-rule="evenodd" clip-rule="evenodd" d="M25.0776 47.9469C25.0776 33.5875 36.7182 21.9469 51.0776 21.9469H209.078C223.437 21.9469 235.078 33.5875 235.078 47.9469V397.947C235.078 412.306 223.437 423.947 209.078 423.947H51.0776C36.7182 423.947 25.0776 412.306 25.0776 397.947V47.9469Z" fill="url(#paint10_linear_0_1428)"/>
<path d="M25.5276 47.9469C25.5276 33.836 36.9668 22.3969 51.0776 22.3969H209.078C223.189 22.3969 234.628 33.836 234.628 47.9469V397.947C234.628 412.058 223.189 423.497 209.078 423.497H51.0776C36.9668 423.497 25.5276 412.058 25.5276 397.947V47.9469Z" stroke="#F0F1F6" stroke-opacity="0.233894" stroke-width="0.9"/>
<g filter="url(#filter2_i_0_1428)">
<path fill-rule="evenodd" clip-rule="evenodd" d="M130.078 408.947C137.257 408.947 143.078 403.127 143.078 395.947C143.078 388.767 137.257 382.947 130.078 382.947C122.898 382.947 117.078 388.767 117.078 395.947C117.078 403.127 122.898 408.947 130.078 408.947Z" fill="url(#paint11_linear_0_1428)"/>
</g>
<path d="M142.628 395.947C142.628 402.878 137.009 408.497 130.078 408.497C123.146 408.497 117.528 402.878 117.528 395.947C117.528 389.016 123.146 383.397 130.078 383.397C137.009 383.397 142.628 389.016 142.628 395.947Z" stroke="#F0F1F6" stroke-opacity="0.233894" stroke-width="0.9"/>
<g opacity="0.4482">
<path fill-rule="evenodd" clip-rule="evenodd" d="M43.0776 60.6469C43.0776 59.1557 44.2865 57.9469 45.7776 57.9469H215.378C216.869 57.9469 218.078 59.1557 218.078 60.6469V366.247C218.078 367.738 216.869 368.947 215.378 368.947H45.7776C44.2865 368.947 43.0776 367.738 43.0776 366.247V60.6469Z" fill="#E6F0FD"/>
<path d="M43.5276 60.6469C43.5276 59.4043 44.535 58.3969 45.7776 58.3969H215.378C216.62 58.3969 217.628 59.4043 217.628 60.6469V366.247C217.628 367.49 216.62 368.497 215.378 368.497H45.7776C44.535 368.497 43.5276 367.49 43.5276 366.247V60.6469Z" stroke="#C7D8EC" stroke-opacity="0.13536" stroke-width="0.9"/>
</g>
<mask id="mask0_0_1428" style="mask-type:alpha" maskUnits="userSpaceOnUse" x="43" y="57" width="176" height="312">
<path fill-rule="evenodd" clip-rule="evenodd" d="M43.0776 60.6469C43.0776 59.1557 44.2865 57.9469 45.7776 57.9469H215.378C216.869 57.9469 218.078 59.1557 218.078 60.6469V366.247C218.078 367.738 216.869 368.947 215.378 368.947H45.7776C44.2865 368.947 43.0776 367.738 43.0776 366.247V60.6469Z" fill="white"/>
<path d="M43.5276 60.6469C43.5276 59.4043 44.535 58.3969 45.7776 58.3969H215.378C216.62 58.3969 217.628 59.4043 217.628 60.6469V366.247C217.628 367.49 216.62 368.497 215.378 368.497H45.7776C44.535 368.497 43.5276 367.49 43.5276 366.247V60.6469Z" stroke="white" stroke-width="0.9"/>
</mask>
<g mask="url(#mask0_0_1428)">
<rect x="44.0776" y="79.9469" width="173" height="41" fill="white"/>
<rect x="181.112" y="86.6432" width="26" height="12" rx="1" fill="url(#paint12_linear_0_1428)"/>
<rect opacity="0.957937" x="43.0776" y="57.9469" width="175" height="21" fill="#20324B"/>
<path fill-rule="evenodd" clip-rule="evenodd" d="M209.078 69.9469C209.63 69.9469 210.078 69.4992 210.078 68.9469C210.078 68.3946 209.63 67.9469 209.078 67.9469C208.525 67.9469 208.078 68.3946 208.078 68.9469C208.078 69.4992 208.525 69.9469 209.078 69.9469Z" fill="white"/>
<path fill-rule="evenodd" clip-rule="evenodd" d="M44.0776 233.947H217.078V259.947H44.0776V233.947Z" fill="white"/>
<rect x="181.078" y="239.947" width="26" height="12" rx="1" fill="url(#paint13_linear_0_1428)"/>
<rect x="52.0776" y="239.947" width="31" height="2" rx="1" fill="#C8D7E9"/>
<rect opacity="0.615319" x="52.0776" y="243.947" width="31" height="1" rx="0.5" fill="#C8D7E9"/>
<rect opacity="0.615319" x="52.0776" y="246.947" width="28" height="1" rx="0.5" fill="#C8D7E9"/>
<path fill-rule="evenodd" clip-rule="evenodd" d="M44.0776 260.947H217.078V286.947H44.0776V260.947Z" fill="white"/>
<rect opacity="0.316916" x="181.078" y="266.947" width="26" height="12" rx="1" fill="url(#paint14_linear_0_1428)"/>
<rect x="52.0776" y="266.947" width="31" height="2" rx="1" fill="#C8D7E9"/>
<rect opacity="0.615319" x="52.0776" y="270.947" width="31" height="1" rx="0.5" fill="#C8D7E9"/>
<rect opacity="0.615319" x="52.0776" y="273.947" width="28" height="1" rx="0.5" fill="#C8D7E9"/>
<path fill-rule="evenodd" clip-rule="evenodd" d="M44.0776 287.947H217.078V313.947H44.0776V287.947Z" fill="white"/>
<rect opacity="0.316916" x="181.078" y="293.947" width="26" height="12" rx="1" fill="url(#paint15_linear_0_1428)"/>
<rect x="52.0776" y="293.947" width="31" height="2" rx="1" fill="#C8D7E9"/>
<rect opacity="0.615319" x="52.0776" y="297.947" width="31" height="1" rx="0.5" fill="#C8D7E9"/>
<rect opacity="0.615319" x="52.0776" y="300.947" width="28" height="1" rx="0.5" fill="#C8D7E9"/>
<path fill-rule="evenodd" clip-rule="evenodd" d="M44.0776 314.947H217.078V340.947H44.0776V314.947Z" fill="white"/>
<rect opacity="0.316916" x="181.078" y="320.947" width="26" height="12" rx="1" fill="url(#paint16_linear_0_1428)"/>
<rect x="52.0776" y="320.947" width="31" height="2" rx="1" fill="#C8D7E9"/>
<rect opacity="0.615319" x="52.0776" y="324.947" width="31" height="1" rx="0.5" fill="#C8D7E9"/>
<rect opacity="0.615319" x="52.0776" y="327.947" width="28" height="1" rx="0.5" fill="#C8D7E9"/>
<path fill-rule="evenodd" clip-rule="evenodd" d="M44.0776 341.947H217.078V367.947H44.0776V341.947Z" fill="white"/>
<rect opacity="0.316916" x="181.078" y="347.947" width="26" height="12" rx="1" fill="url(#paint17_linear_0_1428)"/>
<rect x="52.0776" y="347.947" width="31" height="2" rx="1" fill="#C8D7E9"/>
<rect opacity="0.615319" x="52.0776" y="351.947" width="31" height="1" rx="0.5" fill="#C8D7E9"/>
<rect opacity="0.615319" x="52.0776" y="354.947" width="28" height="1" rx="0.5" fill="#C8D7E9"/>
<path fill-rule="evenodd" clip-rule="evenodd" d="M44.0776 121.947H217.078V147.947H44.0776V121.947Z" fill="white"/>
<rect x="52.0776" y="127.947" width="12" height="12" rx="1" fill="url(#paint18_linear_0_1428)"/>
<rect x="181.078" y="127.947" width="26" height="12" rx="1" fill="url(#paint19_linear_0_1428)"/>
<rect x="67.0776" y="127.947" width="31" height="2" rx="1" fill="#C8D7E9"/>
<rect opacity="0.615319" x="67.0776" y="131.947" width="31" height="1" rx="0.5" fill="#C8D7E9"/>
<rect opacity="0.615319" x="67.0776" y="134.947" width="28" height="1" rx="0.5" fill="#C8D7E9"/>
<rect x="50.9972" y="87.5138" width="12" height="12" rx="1" fill="url(#paint20_linear_0_1428)"/>
<rect x="65.9972" y="87.5138" width="31" height="2" rx="1" fill="#C8D7E9"/>
<rect opacity="0.615319" x="65.9972" y="91.5138" width="31" height="1" rx="0.5" fill="#C8D7E9"/>
<rect opacity="0.615319" x="65.9972" y="94.5138" width="28" height="1" rx="0.5" fill="#C8D7E9"/>
</g>
<defs>
<filter id="filter0_f_0_1428" x="250.613" y="0.502626" width="642.924" height="457.992" filterUnits="userSpaceOnUse" color-interpolation-filters="sRGB">
<feFlood flood-opacity="0" result="BackgroundImageFix"/>
<feBlend mode="normal" in="SourceGraphic" in2="BackgroundImageFix" result="shape"/>
<feGaussianBlur stdDeviation="12.2323" result="effect1_foregroundBlur_0_1428"/>
</filter>
<filter id="filter1_f_0_1428" x="0.6131" y="1.48236" width="257.929" height="457.929" filterUnits="userSpaceOnUse" color-interpolation-filters="sRGB">
<feFlood flood-opacity="0" result="BackgroundImageFix"/>
<feBlend mode="normal" in="SourceGraphic" in2="BackgroundImageFix" result="shape"/>
<feGaussianBlur stdDeviation="12.2323" result="effect1_foregroundBlur_0_1428"/>
</filter>
<filter id="filter2_i_0_1428" x="117.078" y="382.947" width="26" height="27" filterUnits="userSpaceOnUse" color-interpolation-filters="sRGB">
<feFlood flood-opacity="0" result="BackgroundImageFix"/>
<feBlend mode="normal" in="SourceGraphic" in2="BackgroundImageFix" result="shape"/>
<feColorMatrix in="SourceAlpha" type="matrix" values="0 0 0 0 0 0 0 0 0 0 0 0 0 0 0 0 0 0 127 0" result="hardAlpha"/>
<feOffset dy="1"/>
<feGaussianBlur stdDeviation="1.5"/>
<feComposite in2="hardAlpha" operator="arithmetic" k2="-1" k3="1"/>
<feColorMatrix type="matrix" values="0 0 0 0 0.894118 0 0 0 0 0.894118 0 0 0 0 0.901961 0 0 0 0.380491 0"/>
<feBlend mode="normal" in2="shape" result="effect1_innerShadow_0_1428"/>
</filter>
<linearGradient id="paint0_linear_0_1428" x1="257.185" y1="24.9672" x2="257.185" y2="458.673" gradientUnits="userSpaceOnUse">
<stop stop-color="#525981" stop-opacity="0.222883"/>
<stop offset="0.90098" stop-color="#2D324F" stop-opacity="0.222883"/>
<stop offset="1" stop-color="#292D4A" stop-opacity="0.0996377"/>
</linearGradient>
<linearGradient id="paint1_linear_0_1428" x1="275.078" y1="417.937" x2="875.102" y2="417.937" gradientUnits="userSpaceOnUse">
<stop stop-color="white"/>
<stop offset="0.0202749" stop-color="#F9FBFB"/>
<stop offset="0.0457175" stop-color="white"/>
<stop offset="0.946132" stop-color="white"/>
<stop offset="0.976303" stop-color="#FCFDFD"/>
<stop offset="1" stop-color="white"/>
</linearGradient>
<linearGradient id="paint2_linear_0_1428" x1="386.14" y1="87.2821" x2="386.14" y2="110.388" gradientUnits="userSpaceOnUse">
<stop stop-color="#FFC5B1"/>
<stop offset="1" stop-color="#FF5782"/>
</linearGradient>
<linearGradient id="paint3_linear_0_1428" x1="786.229" y1="188.333" x2="778.37" y2="214.485" gradientUnits="userSpaceOnUse">
<stop stop-color="#C2F1A1"/>
<stop offset="1" stop-color="#8EE067"/>
</linearGradient>
<linearGradient id="paint4_linear_0_1428" x1="786.229" y1="132.696" x2="778.37" y2="158.847" gradientUnits="userSpaceOnUse">
<stop stop-color="#C2F1A1"/>
<stop offset="1" stop-color="#8EE067"/>
</linearGradient>
<linearGradient id="paint5_linear_0_1428" x1="786.229" y1="243.971" x2="778.37" y2="270.123" gradientUnits="userSpaceOnUse">
<stop stop-color="#C2F1A1"/>
<stop offset="1" stop-color="#8EE067"/>
</linearGradient>
<linearGradient id="paint6_linear_0_1428" x1="786.229" y1="299.609" x2="778.37" y2="325.76" gradientUnits="userSpaceOnUse">
<stop stop-color="#C2F1A1"/>
<stop offset="1" stop-color="#8EE067"/>
</linearGradient>
<linearGradient id="paint7_linear_0_1428" x1="786.229" y1="355.246" x2="778.37" y2="381.398" gradientUnits="userSpaceOnUse">
<stop stop-color="#C2F1A1"/>
<stop offset="1" stop-color="#8EE067"/>
</linearGradient>
<linearGradient id="paint8_linear_0_1428" x1="768.566" y1="47.0786" x2="768.566" y2="65.1698" gradientUnits="userSpaceOnUse">
<stop stop-color="#00E2C8"/>
<stop offset="1" stop-color="#327FF6"/>
</linearGradient>
<linearGradient id="paint9_linear_0_1428" x1="18.7821" y1="25.9469" x2="18.7821" y2="459.587" gradientUnits="userSpaceOnUse">
<stop stop-color="#525981" stop-opacity="0.222883"/>
<stop offset="0.90098" stop-color="#2D324F" stop-opacity="0.222883"/>
<stop offset="1" stop-color="#292D4A" stop-opacity="0.0996377"/>
</linearGradient>
<linearGradient id="paint10_linear_0_1428" x1="25.0776" y1="418.911" x2="236.851" y2="418.911" gradientUnits="userSpaceOnUse">
<stop stop-color="white"/>
<stop offset="0.0202749" stop-color="#F9FBFB"/>
<stop offset="0.0457175" stop-color="white"/>
<stop offset="0.946132" stop-color="white"/>
<stop offset="0.976303" stop-color="#FCFDFD"/>
<stop offset="1" stop-color="white"/>
</linearGradient>
<linearGradient id="paint11_linear_0_1428" x1="117.078" y1="408.621" x2="143.297" y2="408.621" gradientUnits="userSpaceOnUse">
<stop stop-color="white"/>
<stop offset="0.0202749" stop-color="#F9FBFB"/>
<stop offset="0.0457175" stop-color="white"/>
<stop offset="0.946132" stop-color="white"/>
<stop offset="0.976303" stop-color="#FCFDFD"/>
<stop offset="1" stop-color="white"/>
</linearGradient>
<linearGradient id="paint12_linear_0_1428" x1="181.112" y1="86.6432" x2="181.112" y2="98.6432" gradientUnits="userSpaceOnUse">
<stop stop-color="#00E2C8"/>
<stop offset="1" stop-color="#327FF6"/>
</linearGradient>
<linearGradient id="paint13_linear_0_1428" x1="191.672" y1="235.343" x2="185.673" y2="252.283" gradientUnits="userSpaceOnUse">
<stop stop-color="#C2F1A1"/>
<stop offset="1" stop-color="#8EE067"/>
</linearGradient>
<linearGradient id="paint14_linear_0_1428" x1="191.672" y1="262.343" x2="185.673" y2="279.283" gradientUnits="userSpaceOnUse">
<stop stop-color="#C2F1A1"/>
<stop offset="1" stop-color="#8EE067"/>
</linearGradient>
<linearGradient id="paint15_linear_0_1428" x1="191.672" y1="289.343" x2="185.673" y2="306.283" gradientUnits="userSpaceOnUse">
<stop stop-color="#C2F1A1"/>
<stop offset="1" stop-color="#8EE067"/>
</linearGradient>
<linearGradient id="paint16_linear_0_1428" x1="191.672" y1="316.343" x2="185.673" y2="333.283" gradientUnits="userSpaceOnUse">
<stop stop-color="#C2F1A1"/>
<stop offset="1" stop-color="#8EE067"/>
</linearGradient>
<linearGradient id="paint17_linear_0_1428" x1="191.672" y1="343.343" x2="185.673" y2="360.283" gradientUnits="userSpaceOnUse">
<stop stop-color="#C2F1A1"/>
<stop offset="1" stop-color="#8EE067"/>
</linearGradient>
<linearGradient id="paint18_linear_0_1428" x1="58.0776" y1="123.119" x2="48.4215" y2="135.119" gradientUnits="userSpaceOnUse">
<stop stop-color="#FF7272"/>
<stop offset="1" stop-color="#FFBE3E"/>
</linearGradient>
<linearGradient id="paint19_linear_0_1428" x1="181.078" y1="127.947" x2="181.078" y2="139.947" gradientUnits="userSpaceOnUse">
<stop stop-color="#00E2C8"/>
<stop offset="1" stop-color="#327FF6"/>
</linearGradient>
<linearGradient id="paint20_linear_0_1428" x1="56.9972" y1="82.6857" x2="47.341" y2="94.6857" gradientUnits="userSpaceOnUse">
<stop stop-color="#FF7272"/>
<stop offset="1" stop-color="#FFBE3E"/>
</linearGradient>
</defs>
</svg>
